<svg width="96" height="33" viewBox="0 0 96 33" fill="none" xmlns="http://www.w3.org/2000/svg">
    <path d="M1.95947 22L4.33984 9.8418L8.22168 18.6309L12.2427 9.8418L14.3813 22H12.6309L11.5396 15.1738L8.19238 22.52L4.94043 15.1665L3.72461 22H1.95947Z" fill="white"/>
    <path d="M18.4902 10.6914V17.5029C18.4902 18.4746 18.6489 19.1851 18.9663 19.6343C19.4399 20.2837 20.1064 20.6084 20.9658 20.6084C21.8301 20.6084 22.499 20.2837 22.9727 19.6343C23.29 19.1997 23.4487 18.4893 23.4487 17.5029V10.6914H25.1553V17.9717C25.1553 19.1631 24.7842 20.1445 24.042 20.916C23.207 21.7754 22.1816 22.2051 20.9658 22.2051C19.75 22.2051 18.7271 21.7754 17.897 20.916C17.1548 20.1445 16.7837 19.1631 16.7837 17.9717V10.6914H18.4902Z" fill="white"/>
    <path d="M28.4438 10.6914L31.5713 18.5283L34.7427 10.6914H36.6104L31.5347 22.8496L26.5762 10.6914H28.4438Z" fill="white"/>
    <path d="M39.7305 10.6914V22H38.0239V10.6914H39.7305Z" fill="white"/>
    <path d="M45.5679 12.2954V22H43.8613V12.2954H41.2612V10.6914H48.1606V12.2954H45.5679Z" fill="white"/>
    <path d="M48.7539 16.2944C48.7539 14.7026 49.3374 13.3354 50.5044 12.1929C51.6665 11.0503 53.063 10.479 54.6938 10.479C56.3052 10.479 57.687 11.0552 58.8394 12.2075C59.9966 13.3599 60.5752 14.7441 60.5752 16.3604C60.5752 17.9863 59.9941 19.3657 58.832 20.4985C57.665 21.6362 56.2563 22.2051 54.606 22.2051C53.146 22.2051 51.835 21.6997 50.6729 20.689C49.3936 19.5708 48.7539 18.106 48.7539 16.2944ZM50.4751 16.3164C50.4751 17.5664 50.895 18.5942 51.7349 19.3999C52.5698 20.2056 53.5342 20.6084 54.6279 20.6084C55.8145 20.6084 56.8154 20.1982 57.6309 19.3779C58.4463 18.5479 58.854 17.5371 58.854 16.3457C58.854 15.1396 58.4512 14.1289 57.6455 13.3135C56.8447 12.4932 55.8535 12.083 54.6719 12.083C53.4951 12.083 52.5015 12.4932 51.6909 13.3135C50.8804 14.124 50.4751 15.125 50.4751 16.3164Z" fill="white"/>
    <path d="M62.1572 16.2944C62.1572 14.7026 62.7407 13.3354 63.9077 12.1929C65.0698 11.0503 66.4663 10.479 68.0972 10.479C69.7085 10.479 71.0903 11.0552 72.2427 12.2075C73.3999 13.3599 73.9785 14.7441 73.9785 16.3604C73.9785 17.9863 73.3975 19.3657 72.2354 20.4985C71.0684 21.6362 69.6597 22.2051 68.0093 22.2051C66.5493 22.2051 65.2383 21.6997 64.0762 20.689C62.7969 19.5708 62.1572 18.106 62.1572 16.2944ZM63.8784 16.3164C63.8784 17.5664 64.2983 18.5942 65.1382 19.3999C65.9731 20.2056 66.9375 20.6084 68.0312 20.6084C69.2178 20.6084 70.2188 20.1982 71.0342 19.3779C71.8496 18.5479 72.2573 17.5371 72.2573 16.3457C72.2573 15.1396 71.8545 14.1289 71.0488 13.3135C70.248 12.4932 69.2568 12.083 68.0752 12.083C66.8984 12.083 65.9048 12.4932 65.0942 13.3135C64.2837 14.124 63.8784 15.125 63.8784 16.3164Z" fill="white"/>
    <path d="M38 1H96M95 1V32M96 32L38 32M1.95947 22L4.33984 9.8418L8.22168 18.6309L12.2427 9.8418L14.3813 22H12.6309L11.5396 15.1738L8.19238 22.52L4.94043 15.1665L3.72461 22H1.95947ZM18.4902 10.6914V17.5029C18.4902 18.4746 18.6489 19.1851 18.9663 19.6343C19.4399 20.2837 20.1064 20.6084 20.9658 20.6084C21.8301 20.6084 22.499 20.2837 22.9727 19.6343C23.29 19.1997 23.4487 18.4893 23.4487 17.5029V10.6914H25.1553V17.9717C25.1553 19.1631 24.7842 20.1445 24.042 20.916C23.207 21.7754 22.1816 22.2051 20.9658 22.2051C19.75 22.2051 18.7271 21.7754 17.897 20.916C17.1548 20.1445 16.7837 19.1631 16.7837 17.9717V10.6914H18.4902ZM28.4438 10.6914L31.5713 18.5283L34.7427 10.6914H36.6104L31.5347 22.8496L26.5762 10.6914H28.4438ZM39.7305 10.6914V22H38.0239V10.6914H39.7305ZM45.5679 12.2954V22H43.8613V12.2954H41.2612V10.6914H48.1606V12.2954H45.5679ZM48.7539 16.2944C48.7539 14.7026 49.3374 13.3354 50.5044 12.1929C51.6665 11.0503 53.063 10.479 54.6938 10.479C56.3052 10.479 57.687 11.0552 58.8394 12.2075C59.9966 13.3599 60.5752 14.7441 60.5752 16.3604C60.5752 17.9863 59.9941 19.3657 58.832 20.4985C57.665 21.6362 56.2563 22.2051 54.606 22.2051C53.146 22.2051 51.835 21.6997 50.6729 20.689C49.3936 19.5708 48.7539 18.106 48.7539 16.2944ZM50.4751 16.3164C50.4751 17.5664 50.895 18.5942 51.7349 19.3999C52.5698 20.2056 53.5342 20.6084 54.6279 20.6084C55.8145 20.6084 56.8154 20.1982 57.6309 19.3779C58.4463 18.5479 58.854 17.5371 58.854 16.3457C58.854 15.1396 58.4512 14.1289 57.6455 13.3135C56.8447 12.4932 55.8535 12.083 54.6719 12.083C53.4951 12.083 52.5015 12.4932 51.6909 13.3135C50.8804 14.124 50.4751 15.125 50.4751 16.3164ZM62.1572 16.2944C62.1572 14.7026 62.7407 13.3354 63.9077 12.1929C65.0698 11.0503 66.4663 10.479 68.0972 10.479C69.7085 10.479 71.0903 11.0552 72.2427 12.2075C73.3999 13.3599 73.9785 14.7441 73.9785 16.3604C73.9785 17.9863 73.3975 19.3657 72.2354 20.4985C71.0684 21.6362 69.6597 22.2051 68.0093 22.2051C66.5493 22.2051 65.2383 21.6997 64.0762 20.689C62.7969 19.5708 62.1572 18.106 62.1572 16.2944ZM63.8784 16.3164C63.8784 17.5664 64.2983 18.5942 65.1382 19.3999C65.9731 20.2056 66.9375 20.6084 68.0312 20.6084C69.2178 20.6084 70.2188 20.1982 71.0342 19.3779C71.8496 18.5479 72.2573 17.5371 72.2573 16.3457C72.2573 15.1396 71.8545 14.1289 71.0488 13.3135C70.248 12.4932 69.2568 12.083 68.0752 12.083C66.8984 12.083 65.9048 12.4932 65.0942 13.3135C64.2837 14.124 63.8784 15.125 63.8784 16.3164Z" stroke="white" stroke-width="2"/>
</svg>
